PathFileType	4	(X/Y/Z)	D:\TRACE\v60_Jaco2_6-2-23\BothDRS_Motion1_4-v60.trc
DataRate	CameraRate	NumFrames	NumMarkers	Units	OrigDataRate	OrigDataStartFrame	OrigNumFrames
100.00	100.00	      31	9	mm	100.00	6107	      6979
Frame#	Time	front left toe			Front right toe			aft left toe			aft right toe			Arm			FL body			FR body			AL Body			AR Body			
		X1	Y1	Z1	X2	Y2	Z2	X3	Y3	Z3	X4	Y4	Z4	X5	Y5	Z5	X6	Y6	Z6	X7	Y7	Z7	X8	Y8	Z8	X9	Y9	Z9	

6107	61.060	-124.41109	-1.01005	-399.59500	267.42532	119.08625	-466.19467	-13.07350	145.98825	207.64764	346.60645	21.53402	161.01643	136.91341	1067.37720	-783.06726	-22.05948	557.22119	-554.40295	135.85060	553.39069	-578.26837	121.04530	577.04340	380.57474	275.45975	567.56104	357.93576	
6108	61.070	-125.46178	-0.70629	-399.79205	271.47476	122.13717	-464.20926	-15.93064	149.50816	207.05009	346.19284	21.84739	161.30138	139.78008	1066.86621	-782.79993	-20.94291	556.54669	-554.38336	137.47125	553.32312	-579.25787	119.91649	577.19568	380.86316	275.87732	569.65613	360.98108	
6109	61.080	-126.00936	-0.81622	-399.86060	276.77701	122.98812	-462.00201	-18.84098	150.72260	206.43552	344.64273	21.57993	161.27309	142.12823	1066.65979	-782.30402	-20.37123	556.38824	-554.48181	138.58186	552.41217	-577.96912	118.79169	576.96130	381.43964	274.90836	569.53796	361.84201	
6110	61.090	-126.91800	-0.61474	-399.83203	281.32751	121.10479	-459.64954	-21.71187	148.96814	206.60522	344.33450	21.83386	161.43195	144.88036	1066.00684	-781.71631	-19.85891	556.36615	-554.30707	140.41486	552.46851	-577.93353	117.32426	577.40192	381.90125	273.20444	569.71362	362.47208	
6111	61.100	-127.88713	-0.34261	-399.70166	284.43369	116.32954	-456.99329	-24.73745	145.66463	206.80286	342.82867	21.58372	161.61879	146.96199	1065.78992	-781.05518	-18.35811	555.89270	-553.84827	140.46381	551.91010	-577.27802	116.04371	577.98639	382.21484	272.62061	569.93219	363.34097	
6112	61.110	-128.48326	-0.01342	-399.82401	288.96582	112.01562	-454.49377	-26.64550	141.61406	207.41759	341.73895	21.60892	161.96832	149.41490	1065.79688	-780.34845	-17.47773	555.57977	-553.73413	140.57253	551.08911	-575.58765	114.89476	578.32037	382.76096	271.19217	569.66962	364.08719	
6113	61.120	-129.32634	0.01351	-400.11734	292.33231	105.52847	-451.82251	-28.39065	136.37387	207.49541	340.90222	21.81443	162.20599	151.57413	1065.44421	-779.46783	-16.90285	555.53693	-553.41656	141.52719	550.79797	-575.13483	113.71617	578.56586	383.33890	270.44473	569.93109	364.61139	
6114	61.130	-130.08226	-0.01305	-400.25345	295.41470	97.96277	-449.60757	-29.90315	130.17091	207.74464	339.95129	21.62058	162.10126	153.84145	1065.17761	-778.79120	-16.12856	555.30103	-553.22382	142.76346	550.51001	-575.29321	112.85542	579.08588	383.83365	269.83047	569.92975	365.55252	
6115	61.140	-130.96681	0.11801	-400.06720	298.21338	89.64916	-447.16901	-31.01416	123.02707	207.90424	338.78085	21.49308	162.17491	155.76770	1065.01929	-777.89856	-14.90995	554.89795	-552.97382	144.16597	550.46246	-574.88385	111.87576	579.25073	384.48532	268.87967	569.75507	366.26004	
6116	61.150	-131.80969	0.40559	-400.04019	301.37753	79.86089	-445.16156	-32.22226	115.00608	207.84532	338.11649	21.59285	162.60551	157.71376	1064.99402	-776.97595	-13.62909	554.91388	-552.28534	144.21031	549.92999	-573.92383	111.49372	579.25378	384.99539	268.60303	569.65308	366.79211	
6117	61.160	-132.46573	0.51623	-400.00235	304.47916	69.67907	-443.25909	-32.23702	105.58646	208.29897	336.99142	21.36010	162.71283	159.47311	1064.87366	-776.29999	-14.15323	554.94415	-552.19653	145.43164	549.93372	-573.86133	111.40228	579.18408	385.41534	268.33658	569.47125	367.54483	
6118	61.170	-133.10452	0.74513	-400.22974	307.09424	59.11508	-441.57883	-31.66321	95.33929	209.03215	336.30124	21.21943	162.69412	161.22768	1064.51831	-775.73364	-13.26274	554.68512	-551.60980	146.18097	549.67792	-573.12598	111.64464	579.03137	386.06281	268.20706	568.57184	366.84470	
6119	61.180	-133.83640	0.76894	-400.26535	308.49896	49.34422	-440.55338	-30.68213	85.09764	210.27556	335.16064	21.20687	162.79677	162.26418	1064.23450	-774.81586	-12.71350	554.40533	-551.33429	146.69572	549.34387	-572.51453	112.26978	578.21185	386.36142	268.16235	568.86304	368.35077	
6120	61.190	-135.49626	1.29335	-400.04623	309.86426	40.02251	-439.89059	-28.92887	74.58642	211.91914	334.23026	20.91453	162.96817	163.24107	1063.97620	-774.15540	-11.37304	554.06207	-550.36511	147.06729	549.22803	-572.32007	111.94537	578.58240	386.88083	268.49881	568.49304	368.74518	
6121	61.200	-136.34789	1.66480	-399.82529	309.66608	30.20152	-439.39218	-26.19865	64.32755	214.01952	333.34546	20.77687	162.85428	164.09499	1063.89575	-773.50293	-11.61198	554.27484	-550.19281	147.09654	548.95135	-571.47198	112.75089	578.38678	387.28519	268.94534	567.72467	368.58826	
6122	61.210	-136.88464	1.68006	-399.82172	308.62305	21.05295	-438.94528	-23.46879	55.67483	215.66820	332.48401	20.83154	163.02385	164.57190	1063.86487	-772.80780	-11.24451	554.43494	-549.68817	147.48969	548.85492	-570.77228	113.70878	578.04858	387.82224	269.94125	567.22192	368.98218	
6123	61.220	-137.81316	1.74396	-399.61078	307.55551	13.01178	-438.98895	-20.40321	46.90044	216.90527	331.71130	20.82894	163.42387	164.62109	1064.01538	-772.09894	-10.64428	554.55127	-549.05774	148.27272	548.98987	-570.72748	114.70432	577.38373	388.30350	270.68768	567.40253	370.03699	
6124	61.230	-138.92953	2.00578	-399.52594	306.30103	5.63920	-439.32065	-17.76419	39.55153	218.59764	330.96344	20.54105	163.43935	164.78580	1064.07056	-771.34894	-10.42918	554.30554	-548.38062	148.47687	548.83698	-570.31946	115.93906	577.12451	388.86685	273.63577	566.39832	369.76324	
6125	61.240	-139.64752	2.00043	-399.58585	304.97412	3.27055	-441.44244	-14.57760	32.91861	219.84575	330.23157	20.36045	163.46220	164.68053	1064.27026	-770.26825	-10.65911	554.10803	-547.74207	148.45685	548.70325	-569.98578	117.24160	576.37524	389.18533	273.77560	566.30493	371.07605	
6126	61.250	-140.23451	1.99478	-399.53543	304.75760	1.12223	-440.44720	-11.67399	26.29853	221.01334	329.39319	20.20566	163.40913	164.43546	1064.31860	-769.75482	-10.80765	554.39148	-547.20630	148.29027	549.12170	-569.53870	119.00609	575.89026	389.70679	275.52798	565.07874	370.17081	
6127	61.260	-141.34023	2.36949	-399.38324	304.53308	0.87663	-440.94461	-10.81230	22.88830	220.74139	328.15927	19.98069	163.30362	163.76886	1064.73962	-768.86700	-10.17062	554.92279	-545.80865	147.10710	549.92163	-569.06311	120.87495	574.74768	390.54214	278.83066	564.95117	370.58054	
6128	61.270	-142.03876	2.76102	-400.55811	303.00858	-0.31101	-441.42834	-13.46429	21.65794	219.11360	327.80566	20.26339	161.97798	162.57698	1065.62085	-767.81451	-11.83978	556.05383	-545.26184	147.51874	550.82709	-568.03918	123.37061	575.36481	391.23483	280.84595	565.14978	370.75745	
6129	61.280	-142.59433	4.04537	-400.51004	302.37640	-1.01826	-441.96994	-15.27028	21.05775	219.85240	326.54031	21.51870	160.97052	161.00558	1066.84668	-766.55249	-12.09144	556.21729	-543.12207	146.94585	550.91113	-567.09235	126.52796	577.49792	392.36755	281.87695	567.14337	372.66437	
6130	61.290	-140.11122	7.29624	-397.58420	302.00589	-1.30445	-442.66602	-15.07982	23.25165	219.78751	323.98038	23.87003	164.54408	159.35439	1067.96472	-766.03302	-12.63195	556.82495	-541.54303	146.59541	551.22284	-565.55615	128.43835	578.53156	393.96570	282.09088	567.51917	371.78351	
6131	61.300	-137.63210	9.41912	-394.30988	301.58533	-1.34761	-442.56995	-14.16324	22.20605	220.33315	321.93073	26.41586	169.67844	157.45389	1068.08789	-765.50488	-13.20185	557.53528	-539.09027	145.16109	552.01160	-563.43103	130.74402	580.14734	395.54672	284.44971	568.49457	372.99924	
6132	61.310	-132.03435	18.20117	-391.76465	300.53036	-0.92385	-442.60416	-15.90897	23.19826	220.33913	319.09711	37.68030	170.96382	155.93236	1067.67419	-764.08087	-14.42156	558.37988	-536.66779	143.43559	552.69971	-562.12164	133.03291	580.43250	397.43759	289.79904	570.00812	375.54202	
6133	61.320	-129.13402	27.19309	-389.89282	299.21625	-0.83757	-442.60391	-16.66239	22.92523	220.40181	318.78693	46.59084	173.75166	154.49551	1067.46631	-761.86444	-15.45373	558.91528	-534.35199	143.36880	553.43750	-560.06860	134.76993	580.76459	399.52551	291.97128	570.45306	377.26367	
6134	61.330	-129.41434	40.10141	-386.27499	298.18851	-0.78342	-442.54321	-16.89477	22.42616	220.60663	319.25900	59.74850	174.87701	153.70387	1068.12366	-759.10101	-16.20546	559.09802	-531.71808	142.62979	553.50543	-557.88464	135.24037	581.62939	401.87311	289.52844	569.59509	377.89835	
6135	61.340	-131.22176	53.39843	-383.19595	297.41992	-0.84586	-442.29523	-17.77775	22.70106	220.77295	322.85577	71.45392	176.26180	152.22627	1069.01343	-756.55444	-16.94897	559.04492	-529.02118	141.45328	553.45575	-555.33923	136.10693	581.68311	404.44000	290.09183	569.55792	380.04254	
6136	61.350	-133.09567	66.11320	-377.51965	296.14401	-0.72504	-442.19739	-19.15465	22.93461	221.05502	326.75116	83.65472	178.78625	151.44080	1069.69543	-753.54474	-17.81695	559.00494	-525.77521	140.59666	553.71851	-553.12988	136.62538	581.25940	407.17731	290.43634	569.34216	382.71057	
6137	61.360	-134.04721	78.93806	-371.25311	294.01938	-0.94060	-442.32291	-19.70932	22.27864	221.21367	333.56146	96.80941	182.47917	150.06197	1069.66870	-750.08398	-18.50144	559.02625	-523.02527	139.83586	553.46814	-549.51331	137.42677	580.03656	410.06760	290.66229	568.48407	385.38260	
